<?xml version="1.0" standalone="no"?>
<!DOCTYPE svg PUBLIC "-//W3C//DTD SVG 20010904//EN"
 "http://www.w3.org/TR/2001/REC-SVG-20010904/DTD/svg10.dtd">
<svg version="1.0" xmlns="http://www.w3.org/2000/svg"
 width="655.000000pt" height="580.000000pt" viewBox="0 0 655.000000 580.000000"
 preserveAspectRatio="xMidYMid meet">
<metadata>
Created by potrace 1.16, written by Peter Selinger 2001-2019
</metadata>
<g transform="translate(0.000000,580.000000) scale(0.100000,-0.100000)"
fill="#000000" stroke="none">
<path d="M1253 3847 c-286 -892 -519 -1623 -518 -1625 2 -2 127 71 277 162
l274 166 243 787 c134 434 249 801 255 816 12 30 -15 115 423 -1360 70 -238
131 -433 135 -433 5 0 290 163 305 174 1 1 -63 222 -143 492 -80 269 -274 926
-431 1459 -157 534 -288 973 -292 977 -4 5 -241 -722 -528 -1615z"/>
<path d="M2737 4748 c-21 -17 -43 -71 -51 -129 -14 -94 24 -295 86 -467 l32
-87 9 45 c5 25 13 64 19 87 42 170 201 104 452 -187 320 -372 725 -1016 1041
-1655 119 -241 272 -587 330 -748 15 -42 30 -76 32 -73 7 7 -17 122 -49 234
-153 535 -671 1583 -1101 2227 -244 365 -540 688 -690 753 -36 16 -89 15 -110
0z"/>
<path d="M2052 2033 c-618 -366 -1126 -663 -1129 -660 -3 3 63 212 145 464 83
251 149 459 148 461 -3 2 -537 -319 -555 -334 -5 -4 -561 -1697 -558 -1699 1
-1 684 537 1517 1196 833 659 1526 1207 1540 1218 14 11 23 20 20 20 -3 0
-510 -300 -1128 -666z"/>
<path d="M2635 2009 c-77 -60 -141 -113 -143 -118 -3 -10 454 -1462 484 -1537
l16 -41 161 -6 c89 -3 163 -4 164 -3 2 2 -391 1321 -402 1348 -5 14 11 10 92
-18 242 -87 626 -186 1038 -269 751 -150 1355 -216 1789 -195 280 14 431 41
534 94 67 35 79 100 30 166 -68 92 -329 230 -523 275 -28 6 -27 4 26 -52 31
-32 62 -76 69 -97 11 -34 10 -41 -7 -65 -26 -35 -113 -78 -198 -96 -133 -28
-414 -39 -690 -26 -656 30 -1331 130 -1960 291 -202 52 -225 58 -226 69 0 3
-2 15 -4 26 -6 27 -104 357 -108 361 -1 2 -65 -46 -142 -107z"/>
</g>
</svg>
