<?xml version="1.0" standalone="no"?>
<!DOCTYPE svg PUBLIC "-//W3C//DTD SVG 20010904//EN"
 "http://www.w3.org/TR/2001/REC-SVG-20010904/DTD/svg10.dtd">
<svg version="1.0" xmlns="http://www.w3.org/2000/svg"
 width="557.000000pt" height="489.000000pt" viewBox="0 0 557.000000 489.000000"
 preserveAspectRatio="xMidYMid meet">
<metadata>
Created by potrace 1.16, written by Peter Selinger 2001-2019
</metadata>
<g transform="translate(0.000000,489.000000) scale(0.100000,-0.100000)"
fill="#000000" stroke="none">
<path d="M1360 4368 c-56 -172 -126 -385 -155 -473 -29 -88 -115 -349 -190
-580 -75 -231 -159 -485 -185 -565 -169 -511 -272 -832 -269 -835 2 -1 58 29
124 69 66 39 172 101 236 139 l115 67 163 518 c90 284 174 549 187 587 12 39
37 116 55 173 18 57 35 99 39 95 8 -9 24 -58 90 -278 23 -77 55 -180 70 -230
16 -49 43 -139 60 -200 81 -283 119 -410 200 -669 22 -71 40 -135 40 -142 0
-8 5 -14 12 -14 20 0 268 144 268 156 0 6 -13 53 -29 105 -41 134 -93 304
-136 449 -20 69 -54 177 -74 240 -21 63 -55 171 -76 240 -20 69 -48 159 -60
200 -13 41 -58 192 -100 335 -42 143 -89 301 -105 350 -15 50 -44 144 -64 210
-90 303 -107 359 -110 363 -2 2 -50 -138 -106 -310z"/>
<path d="M2286 4051 c-9 -10 -21 -45 -27 -79 -14 -78 7 -232 50 -361 42 -127
47 -134 56 -80 18 109 60 158 123 139 300 -85 1116 -1343 1468 -2260 56 -145
37 -20 -27 180 -143 446 -561 1269 -912 1795 -201 300 -447 578 -582 656 -60
35 -123 39 -149 10z"/>
<path d="M1675 1736 c-522 -304 -951 -549 -953 -545 -2 4 43 144 99 311 155
461 160 479 140 469 -43 -23 -457 -273 -464 -280 -10 -10 -488 -1433 -483
-1438 2 -2 37 22 77 55 41 32 274 213 519 402 245 189 544 421 665 515 121 94
299 232 395 306 97 75 236 183 310 240 74 58 248 192 385 299 265 204 285 221
270 219 -6 -1 -437 -250 -960 -553z"/>
<path d="M2205 1730 c-66 -50 -121 -93 -123 -95 -3 -2 21 -84 53 -182 32 -98
83 -259 115 -358 32 -99 95 -292 139 -430 45 -137 93 -280 107 -317 l27 -67
135 -3 c90 -2 136 1 139 8 2 6 -19 84 -47 175 -28 90 -69 225 -91 299 -23 74
-54 176 -69 225 -15 50 -47 153 -70 230 -23 77 -48 158 -56 179 -7 22 -13 40
-11 41 1 2 63 -18 137 -42 525 -173 1481 -347 2045 -372 221 -11 549 2 654 24
154 32 231 82 217 139 -21 83 -179 187 -399 262 -54 19 -101 34 -105 34 -3 0
14 -21 40 -47 104 -108 91 -161 -51 -207 -343 -111 -1483 -12 -2353 204 -168
42 -215 59 -210 78 1 7 -13 61 -32 120 -19 59 -40 126 -46 150 -6 23 -14 42
-19 42 -4 0 -61 -41 -126 -90z"/>
</g>
</svg>
